<?xml version="1.0" encoding="iso-8859-1"?>
<!-- Generator: Adobe Illustrator 19.0.0, SVG Export Plug-In . SVG Version: 6.00 Build 0)  -->
<svg version="1.1" id="Capa_1" xmlns="http://www.w3.org/2000/svg" xmlns:xlink="http://www.w3.org/1999/xlink" x="0px" y="0px"
	 viewBox="0 0 512 512" style="enable-background:new 0 0 512 512;" xml:space="preserve">
<g>
	<g>
		<path d="M404.441,223.826c-1.201-5.413-6.562-8.829-11.976-7.627c-5.413,1.201-8.827,6.563-7.627,11.975
			c2.533,11.421,3.818,23.187,3.818,34.972c0,13.003-1.557,25.923-4.628,38.402c-1.324,5.384,1.966,10.822,7.35,12.147
			c0.806,0.198,1.612,0.293,2.406,0.293c4.513,0,8.615-3.065,9.741-7.643c3.456-14.048,5.209-28.582,5.209-43.2
			C408.735,249.901,407.29,236.671,404.441,223.826z"/>
	</g>
</g>
<g>
	<g>
		<path d="M501.961,207.566h-52.876c-12.182-46.757-39.349-89.019-77.128-119.689c-40.469-32.854-91.52-50.948-143.745-50.948
			c-60.961,0-118.271,23.738-161.372,66.839C23.738,146.87,0,204.18,0,265.141c0,44.116,12.612,86.928,36.472,123.808
			c23.237,35.913,55.922,64.516,94.528,82.717c4.876,2.297,10.076,3.404,15.227,3.404c10.124,0,20.052-4.284,26.913-12.248
			c26.3-30.521,44.692-63.649,55.069-99.017c10.378,35.367,28.769,68.496,55.069,99.016c6.862,7.966,16.787,12.249,26.913,12.249
			c5.151,0,10.355-1.109,15.232-3.406c30.328-14.299,57.661-35.584,79.047-61.556c19.93-24.206,34.805-52.663,43.327-82.712h54.162
			c5.545,0,10.039-4.495,10.039-10.039v-99.75C512,212.061,507.505,207.566,501.961,207.566z M228.212,233.784
			c-0.119-0.415-0.239-0.828-0.359-1.244c-6.24-21.578-12.693-43.89-12.693-81.837c0-3.558,1.408-6.883,3.963-9.363
			c2.461-2.388,5.681-3.689,9.096-3.689c0.135,0,0.269,0.002,0.404,0.006c6.982,0.218,12.652,6.32,12.64,13.601
			c-0.063,37.617-6.483,59.817-12.692,81.285C228.451,232.958,228.332,233.371,228.212,233.784z M430.339,314.962
			c-15.001,61.116-56.361,111.612-113.472,138.538c-6.331,2.982-13.887,1.426-18.376-3.786
			c-39.973-46.388-60.241-99.138-60.241-156.784c0-21.586,4.452-36.981,9.609-54.809c6.288-21.741,13.414-46.383,13.482-86.828
			c0.029-18.03-14.368-33.151-32.106-33.704c-9.056-0.265-17.608,3.049-24.095,9.344c-6.485,6.295-10.057,14.737-10.057,23.771
			c0,40.79,7.163,65.56,13.483,87.413c5.155,17.829,9.608,33.226,9.608,54.812c0,57.646-20.267,110.396-60.241,156.785
			c-4.489,5.21-12.044,6.765-18.372,3.787c-72.581-34.219-119.48-108.156-119.48-188.361c0-114.764,93.368-208.133,208.133-208.133
			c96.775,0,182.226,68.456,203.182,162.771c3.286,14.816,4.952,30.078,4.952,45.362
			C436.344,282.008,434.325,298.769,430.339,314.962z M491.922,307.316h-39.407c2.588-13.841,3.908-27.974,3.908-42.175
			c0-12.574-1.031-25.138-3.07-37.496h38.569V307.316z"/>
	</g>
</g>
<g>
	<g>
		<path d="M387.514,322.043c-12.919,0-12.941,20.078,0,20.078C400.433,342.122,400.454,322.043,387.514,322.043z"/>
	</g>
</g>
<g>
</g>
<g>
</g>
<g>
</g>
<g>
</g>
<g>
</g>
<g>
</g>
<g>
</g>
<g>
</g>
<g>
</g>
<g>
</g>
<g>
</g>
<g>
</g>
<g>
</g>
<g>
</g>
<g>
</g>
</svg>
